<?xml version="1.0" encoding="utf-8"?>
<!-- Svg Vector Icons : http://www.onlinewebfonts.com/icon -->
<!DOCTYPE svg PUBLIC "-//W3C//DTD SVG 1.1//EN" "http://www.w3.org/Graphics/SVG/1.1/DTD/svg11.dtd">
<svg version="1.1" xmlns="http://www.w3.org/2000/svg" xmlns:xlink="http://www.w3.org/1999/xlink" x="0px" y="0px" viewBox="0 0 1000 1000" enable-background="new 0 0 1000 1000" xml:space="preserve">
<metadata> Svg Vector Icons : http://www.onlinewebfonts.com/icon </metadata>
<g><path d="M500,10C229.4,10,10,229.4,10,500c0,270.6,219.4,490,490,490c270.6,0,490-219.4,490-490C990,229.4,770.6,10,500,10z M566.7,862.6c143.9-163.9-170.3-132.3-21.7-366C261.4,633.3,428.6,839.3,442.2,862.9c-200.8-53.5-195.5-244.9-143.2-355c3-6.4,15.8-29.4,21.6-37.9c19-27.7,97.2-111.3,83-193.4c0,0,50.5,65.5,30.2,168.1c89.1-99.1,105.9-257.2,92.4-317.7C727.3,267.6,886.4,748.8,566.7,862.6z"/></g>
</svg>